<mxfile host="app.diagrams.net" modified="2023-12-13T08:34:51.977Z" agent="Mozilla/5.0 (Macintosh; Intel Mac OS X 10_15_7) AppleWebKit/537.36 (KHTML, like Gecko) Chrome/111.0.0.0 Safari/537.36" etag="3E7oZROEZ-_PAI9da5rv" version="22.1.8" type="github">
  <diagram name="第 1 页" id="2DZOpuADKw9ko30QVZN6">
    <mxGraphModel dx="5328" dy="1939" grid="1" gridSize="10" guides="1" tooltips="1" connect="1" arrows="1" fold="1" page="1" pageScale="1" pageWidth="827" pageHeight="1169" math="0" shadow="0">
      <root>
        <mxCell id="0" />
        <mxCell id="1" parent="0" />
        <mxCell id="c-emaLklX0RcFC97JPN--9" value="community_activity&lt;span style=&quot;background-color: rgb(213, 232, 212);&quot;&gt;（小区活动表）&lt;/span&gt;" style="shape=table;startSize=30;container=1;collapsible=1;childLayout=tableLayout;fixedRows=1;rowLines=0;fontStyle=1;align=center;resizeLast=1;html=1;labelBackgroundColor=default;fillColor=#d5e8d4;strokeColor=#82b366;" vertex="1" parent="1">
          <mxGeometry x="-3470" y="-350" width="680" height="480" as="geometry" />
        </mxCell>
        <mxCell id="c-emaLklX0RcFC97JPN--10" value="" style="shape=tableRow;horizontal=0;startSize=0;swimlaneHead=0;swimlaneBody=0;fillColor=none;collapsible=0;dropTarget=0;points=[[0,0.5],[1,0.5]];portConstraint=eastwest;top=0;left=0;right=0;bottom=1;" vertex="1" parent="c-emaLklX0RcFC97JPN--9">
          <mxGeometry y="30" width="680" height="30" as="geometry" />
        </mxCell>
        <mxCell id="c-emaLklX0RcFC97JPN--11" value="PK" style="shape=partialRectangle;connectable=0;fillColor=none;top=0;left=0;bottom=0;right=0;fontStyle=1;overflow=hidden;whiteSpace=wrap;html=1;" vertex="1" parent="c-emaLklX0RcFC97JPN--10">
          <mxGeometry width="30" height="30" as="geometry">
            <mxRectangle width="30" height="30" as="alternateBounds" />
          </mxGeometry>
        </mxCell>
        <mxCell id="c-emaLklX0RcFC97JPN--12" value="`ID` bigint(20) NOT NULL AUTO_INCREMENT COMMENT &#39;自增ID&#39;" style="shape=partialRectangle;connectable=0;fillColor=none;top=0;left=0;bottom=0;right=0;align=left;spacingLeft=6;fontStyle=5;overflow=hidden;whiteSpace=wrap;html=1;" vertex="1" parent="c-emaLklX0RcFC97JPN--10">
          <mxGeometry x="30" width="650" height="30" as="geometry">
            <mxRectangle width="650" height="30" as="alternateBounds" />
          </mxGeometry>
        </mxCell>
        <mxCell id="c-emaLklX0RcFC97JPN--13" value="" style="shape=tableRow;horizontal=0;startSize=0;swimlaneHead=0;swimlaneBody=0;fillColor=none;collapsible=0;dropTarget=0;points=[[0,0.5],[1,0.5]];portConstraint=eastwest;top=0;left=0;right=0;bottom=0;" vertex="1" parent="c-emaLklX0RcFC97JPN--9">
          <mxGeometry y="60" width="680" height="420" as="geometry" />
        </mxCell>
        <mxCell id="c-emaLklX0RcFC97JPN--14" value="" style="shape=partialRectangle;connectable=0;fillColor=none;top=0;left=0;bottom=0;right=0;editable=1;overflow=hidden;whiteSpace=wrap;html=1;" vertex="1" parent="c-emaLklX0RcFC97JPN--13">
          <mxGeometry width="30" height="420" as="geometry">
            <mxRectangle width="30" height="420" as="alternateBounds" />
          </mxGeometry>
        </mxCell>
        <mxCell id="c-emaLklX0RcFC97JPN--15" value="&lt;div style=&quot;line-height: 130%;&quot;&gt;&lt;div style=&quot;line-height: 130%;&quot;&gt;&lt;div style=&quot;line-height: 130%;&quot;&gt;&lt;div style=&quot;line-height: 130%;&quot;&gt;&lt;div style=&quot;line-height: 130%;&quot;&gt;&lt;div style=&quot;line-height: 130%;&quot;&gt;&lt;div style=&quot;line-height: 130%;&quot;&gt;&lt;div data-docx-has-block-data=&quot;false&quot; data-page-id=&quot;YLrPdt7Foo4dSDxoeuHca6s7nCh&quot;&gt;&lt;div class=&quot;old-record-id-FmYydZvrjogUZuxv6E2cjADqneS&quot; style=&quot;&quot;&gt;&lt;div class=&quot;old-record-id-FmYydZvrjogUZuxv6E2cjADqneS&quot;&gt;CREATE TABLE `community_activity` (&lt;/div&gt;&lt;div class=&quot;old-record-id-FmYydZvrjogUZuxv6E2cjADqneS&quot;&gt;&amp;nbsp; `id` bigint(20) NOT NULL AUTO_INCREMENT COMMENT &#39;主键id&#39;,&lt;/div&gt;&lt;div class=&quot;old-record-id-FmYydZvrjogUZuxv6E2cjADqneS&quot;&gt;&amp;nbsp; `community_id` bigint(20) DEFAULT NULL COMMENT &#39;小区id&#39;,&lt;/div&gt;&lt;div class=&quot;old-record-id-FmYydZvrjogUZuxv6E2cjADqneS&quot;&gt;&amp;nbsp; `activity_type` tinyint(5) DEFAULT NULL COMMENT &#39;活动类型（1-零售公益活动，2-家装公益活动，3-厂商公益活动）&#39;,&lt;/div&gt;&lt;div class=&quot;old-record-id-FmYydZvrjogUZuxv6E2cjADqneS&quot;&gt;&amp;nbsp; `activity_name` varchar(50) DEFAULT NULL COMMENT &#39;活动名称&#39;,&lt;/div&gt;&lt;div class=&quot;old-record-id-FmYydZvrjogUZuxv6E2cjADqneS&quot;&gt;&amp;nbsp; `activity_status` int(255) DEFAULT NULL COMMENT &#39;服务状态(0-待举办 ,10-举办中，1-已完成)&#39;,&lt;/div&gt;&lt;div class=&quot;old-record-id-FmYydZvrjogUZuxv6E2cjADqneS&quot;&gt;&amp;nbsp; `time_type` tinyint(5) DEFAULT NULL COMMENT &#39;时间类型（1-今天，2-明天，3-其他）&#39;,&lt;/div&gt;&lt;div class=&quot;old-record-id-FmYydZvrjogUZuxv6E2cjADqneS&quot;&gt;&amp;nbsp; `activity_time` datetime DEFAULT NULL COMMENT &#39;活动时间&#39;,&lt;/div&gt;&lt;div class=&quot;old-record-id-FmYydZvrjogUZuxv6E2cjADqneS&quot;&gt;&amp;nbsp; `comment` varchar(255) DEFAULT NULL COMMENT &#39;备注&#39;,&lt;/div&gt;&lt;div class=&quot;old-record-id-FmYydZvrjogUZuxv6E2cjADqneS&quot;&gt;&amp;nbsp; `location` varchar(255) DEFAULT NULL COMMENT &#39;经纬度&#39;,&lt;/div&gt;&lt;div class=&quot;old-record-id-FmYydZvrjogUZuxv6E2cjADqneS&quot;&gt;&amp;nbsp; `province_code` varchar(20) DEFAULT NULL COMMENT &#39;省编码&#39;,&lt;/div&gt;&lt;div class=&quot;old-record-id-FmYydZvrjogUZuxv6E2cjADqneS&quot;&gt;&amp;nbsp; `province_name` varchar(20) DEFAULT NULL COMMENT &#39;省名称&#39;,&lt;/div&gt;&lt;div class=&quot;old-record-id-FmYydZvrjogUZuxv6E2cjADqneS&quot;&gt;&amp;nbsp; `city_code` varchar(20) DEFAULT NULL COMMENT &#39;市编码&#39;,&lt;/div&gt;&lt;div class=&quot;old-record-id-FmYydZvrjogUZuxv6E2cjADqneS&quot;&gt;&amp;nbsp; `city_name` varchar(20) DEFAULT NULL COMMENT &#39;市名称&#39;,&lt;/div&gt;&lt;div class=&quot;old-record-id-FmYydZvrjogUZuxv6E2cjADqneS&quot;&gt;&amp;nbsp; `district_code` varchar(20) DEFAULT NULL COMMENT &#39;区县编码&#39;,&lt;/div&gt;&lt;div class=&quot;old-record-id-FmYydZvrjogUZuxv6E2cjADqneS&quot;&gt;&amp;nbsp; `district_name` varchar(20) DEFAULT NULL COMMENT &#39;区县名称&#39;,&lt;/div&gt;&lt;div class=&quot;old-record-id-FmYydZvrjogUZuxv6E2cjADqneS&quot;&gt;&amp;nbsp; `street_code` varchar(20) DEFAULT NULL COMMENT &#39;街道编码&#39;,&lt;/div&gt;&lt;div class=&quot;old-record-id-FmYydZvrjogUZuxv6E2cjADqneS&quot;&gt;&amp;nbsp; `street_name` varchar(20) DEFAULT NULL COMMENT &#39;街道名称&#39;,&lt;/div&gt;&lt;div class=&quot;old-record-id-FmYydZvrjogUZuxv6E2cjADqneS&quot;&gt;&amp;nbsp; `detail_address` varchar(255) DEFAULT NULL COMMENT &#39;详细地址(几栋几号楼几室)&#39;,&lt;/div&gt;&lt;div class=&quot;old-record-id-FmYydZvrjogUZuxv6E2cjADqneS&quot;&gt;&amp;nbsp; `deleted` tinyint(5) DEFAULT &#39;0&#39; COMMENT &#39;是否已经删除，1：是，0：否&#39;,&lt;/div&gt;&lt;div class=&quot;old-record-id-FmYydZvrjogUZuxv6E2cjADqneS&quot;&gt;&amp;nbsp; `create_time` datetime DEFAULT NULL COMMENT &#39;创建时间&#39;,&lt;/div&gt;&lt;div class=&quot;old-record-id-FmYydZvrjogUZuxv6E2cjADqneS&quot;&gt;&amp;nbsp; `update_time` datetime DEFAULT NULL COMMENT &#39;修改时间&#39;,&lt;/div&gt;&lt;div class=&quot;old-record-id-FmYydZvrjogUZuxv6E2cjADqneS&quot;&gt;&amp;nbsp; `create_by` varchar(255) DEFAULT NULL COMMENT &#39;创建人&#39;,&lt;/div&gt;&lt;div class=&quot;old-record-id-FmYydZvrjogUZuxv6E2cjADqneS&quot;&gt;&amp;nbsp; `update_by` varchar(255) DEFAULT NULL COMMENT &#39;修改人&#39;,&lt;/div&gt;&lt;div class=&quot;old-record-id-FmYydZvrjogUZuxv6E2cjADqneS&quot;&gt;&amp;nbsp; PRIMARY KEY (`id`)&lt;/div&gt;&lt;div class=&quot;old-record-id-FmYydZvrjogUZuxv6E2cjADqneS&quot;&gt;) ENGINE=InnoDB AUTO_INCREMENT=35 DEFAULT CHARSET=utf8mb4 COMMENT=&#39;小区活动表&#39;;&lt;/div&gt;&lt;/div&gt;&lt;/div&gt;&lt;/div&gt;&lt;/div&gt;&lt;/div&gt;&lt;/div&gt;&lt;/div&gt;&lt;/div&gt;&lt;/div&gt;" style="shape=partialRectangle;connectable=0;fillColor=default;top=0;left=0;bottom=0;right=0;align=left;spacingLeft=6;overflow=hidden;whiteSpace=wrap;html=1;" vertex="1" parent="c-emaLklX0RcFC97JPN--13">
          <mxGeometry x="30" width="650" height="420" as="geometry">
            <mxRectangle width="650" height="420" as="alternateBounds" />
          </mxGeometry>
        </mxCell>
        <mxCell id="c-emaLklX0RcFC97JPN--16" value="community_clock_record&lt;span style=&quot;background-color: rgb(213, 232, 212);&quot;&gt;（小区签到/签退记录表）&lt;/span&gt;" style="shape=table;startSize=30;container=1;collapsible=1;childLayout=tableLayout;fixedRows=1;rowLines=0;fontStyle=1;align=center;resizeLast=1;html=1;labelBackgroundColor=default;fillColor=#d5e8d4;strokeColor=#82b366;" vertex="1" parent="1">
          <mxGeometry x="-2610" y="-340" width="650" height="530" as="geometry" />
        </mxCell>
        <mxCell id="c-emaLklX0RcFC97JPN--17" value="" style="shape=tableRow;horizontal=0;startSize=0;swimlaneHead=0;swimlaneBody=0;fillColor=none;collapsible=0;dropTarget=0;points=[[0,0.5],[1,0.5]];portConstraint=eastwest;top=0;left=0;right=0;bottom=1;" vertex="1" parent="c-emaLklX0RcFC97JPN--16">
          <mxGeometry y="30" width="650" height="30" as="geometry" />
        </mxCell>
        <mxCell id="c-emaLklX0RcFC97JPN--18" value="PK" style="shape=partialRectangle;connectable=0;fillColor=none;top=0;left=0;bottom=0;right=0;fontStyle=1;overflow=hidden;whiteSpace=wrap;html=1;" vertex="1" parent="c-emaLklX0RcFC97JPN--17">
          <mxGeometry width="30" height="30" as="geometry">
            <mxRectangle width="30" height="30" as="alternateBounds" />
          </mxGeometry>
        </mxCell>
        <mxCell id="c-emaLklX0RcFC97JPN--19" value="`ID` bigint(20) NOT NULL AUTO_INCREMENT COMMENT &#39;自增ID&#39;" style="shape=partialRectangle;connectable=0;fillColor=none;top=0;left=0;bottom=0;right=0;align=left;spacingLeft=6;fontStyle=5;overflow=hidden;whiteSpace=wrap;html=1;" vertex="1" parent="c-emaLklX0RcFC97JPN--17">
          <mxGeometry x="30" width="620" height="30" as="geometry">
            <mxRectangle width="620" height="30" as="alternateBounds" />
          </mxGeometry>
        </mxCell>
        <mxCell id="c-emaLklX0RcFC97JPN--20" value="" style="shape=tableRow;horizontal=0;startSize=0;swimlaneHead=0;swimlaneBody=0;fillColor=none;collapsible=0;dropTarget=0;points=[[0,0.5],[1,0.5]];portConstraint=eastwest;top=0;left=0;right=0;bottom=0;" vertex="1" parent="c-emaLklX0RcFC97JPN--16">
          <mxGeometry y="60" width="650" height="470" as="geometry" />
        </mxCell>
        <mxCell id="c-emaLklX0RcFC97JPN--21" value="" style="shape=partialRectangle;connectable=0;fillColor=none;top=0;left=0;bottom=0;right=0;editable=1;overflow=hidden;whiteSpace=wrap;html=1;" vertex="1" parent="c-emaLklX0RcFC97JPN--20">
          <mxGeometry width="30" height="470" as="geometry">
            <mxRectangle width="30" height="470" as="alternateBounds" />
          </mxGeometry>
        </mxCell>
        <mxCell id="c-emaLklX0RcFC97JPN--22" value="&lt;div style=&quot;line-height: 130%;&quot;&gt;&lt;div style=&quot;line-height: 130%;&quot;&gt;&lt;div style=&quot;line-height: 130%;&quot;&gt;&lt;div style=&quot;line-height: 130%;&quot;&gt;&lt;div style=&quot;line-height: 130%;&quot;&gt;&lt;div style=&quot;line-height: 130%;&quot;&gt;&lt;div style=&quot;line-height: 130%;&quot;&gt;&lt;div data-docx-has-block-data=&quot;false&quot; data-page-id=&quot;YLrPdt7Foo4dSDxoeuHca6s7nCh&quot;&gt;&lt;div class=&quot;old-record-id-FmYydZvrjogUZuxv6E2cjADqneS&quot; style=&quot;&quot;&gt;&lt;div class=&quot;old-record-id-FmYydZvrjogUZuxv6E2cjADqneS&quot;&gt;&lt;div class=&quot;old-record-id-FmYydZvrjogUZuxv6E2cjADqneS&quot;&gt;CREATE TABLE `community_clock_record` (&lt;/div&gt;&lt;div class=&quot;old-record-id-FmYydZvrjogUZuxv6E2cjADqneS&quot;&gt;&amp;nbsp; `id` bigint(20) NOT NULL AUTO_INCREMENT COMMENT &#39;主键id&#39;,&lt;/div&gt;&lt;div class=&quot;old-record-id-FmYydZvrjogUZuxv6E2cjADqneS&quot;&gt;&amp;nbsp; `business_plan_id` bigint(20) DEFAULT NULL COMMENT &#39;业务类型任务计划id(拜访、活动、服务)&#39;,&lt;/div&gt;&lt;div class=&quot;old-record-id-FmYydZvrjogUZuxv6E2cjADqneS&quot;&gt;&amp;nbsp; `business_type` tinyint(5) DEFAULT NULL COMMENT &#39;业务类型（1-拜访计划，2-线下活动 3-服务计划）&#39;,&lt;/div&gt;&lt;div class=&quot;old-record-id-FmYydZvrjogUZuxv6E2cjADqneS&quot;&gt;&amp;nbsp; `clock_type` tinyint(5) DEFAULT NULL COMMENT &#39;打卡标识（1-签到，2-签退）&#39;,&lt;/div&gt;&lt;div class=&quot;old-record-id-FmYydZvrjogUZuxv6E2cjADqneS&quot;&gt;&amp;nbsp; `community_file_id` bigint(20) DEFAULT NULL COMMENT &#39;小区id&#39;,&lt;/div&gt;&lt;div class=&quot;old-record-id-FmYydZvrjogUZuxv6E2cjADqneS&quot;&gt;&amp;nbsp; `province_code` varchar(20) DEFAULT NULL COMMENT &#39;省编码&#39;,&lt;/div&gt;&lt;div class=&quot;old-record-id-FmYydZvrjogUZuxv6E2cjADqneS&quot;&gt;&amp;nbsp; `province_name` varchar(20) DEFAULT NULL COMMENT &#39;省名称&#39;,&lt;/div&gt;&lt;div class=&quot;old-record-id-FmYydZvrjogUZuxv6E2cjADqneS&quot;&gt;&amp;nbsp; `city_code` varchar(20) DEFAULT NULL COMMENT &#39;市编码&#39;,&lt;/div&gt;&lt;div class=&quot;old-record-id-FmYydZvrjogUZuxv6E2cjADqneS&quot;&gt;&amp;nbsp; `city_name` varchar(20) DEFAULT NULL COMMENT &#39;市名称&#39;,&lt;/div&gt;&lt;div class=&quot;old-record-id-FmYydZvrjogUZuxv6E2cjADqneS&quot;&gt;&amp;nbsp; `district_code` varchar(20) DEFAULT NULL COMMENT &#39;区县编码&#39;,&lt;/div&gt;&lt;div class=&quot;old-record-id-FmYydZvrjogUZuxv6E2cjADqneS&quot;&gt;&amp;nbsp; `district_name` varchar(20) DEFAULT NULL COMMENT &#39;区县名称&#39;,&lt;/div&gt;&lt;div class=&quot;old-record-id-FmYydZvrjogUZuxv6E2cjADqneS&quot;&gt;&amp;nbsp; `street_code` varchar(20) DEFAULT NULL COMMENT &#39;街道编码&#39;,&lt;/div&gt;&lt;div class=&quot;old-record-id-FmYydZvrjogUZuxv6E2cjADqneS&quot;&gt;&amp;nbsp; `street_name` varchar(20) DEFAULT NULL COMMENT &#39;街道名称&#39;,&lt;/div&gt;&lt;div class=&quot;old-record-id-FmYydZvrjogUZuxv6E2cjADqneS&quot;&gt;&amp;nbsp; `address` varchar(400) DEFAULT NULL COMMENT &#39;地址&#39;,&lt;/div&gt;&lt;div class=&quot;old-record-id-FmYydZvrjogUZuxv6E2cjADqneS&quot;&gt;&amp;nbsp; `location` varchar(50) DEFAULT NULL COMMENT &#39;经纬度&#39;,&lt;/div&gt;&lt;div class=&quot;old-record-id-FmYydZvrjogUZuxv6E2cjADqneS&quot;&gt;&amp;nbsp; `clock_time` datetime DEFAULT NULL COMMENT &#39;打卡时间&#39;,&lt;/div&gt;&lt;div class=&quot;old-record-id-FmYydZvrjogUZuxv6E2cjADqneS&quot;&gt;&amp;nbsp; `clock_device` varchar(255) DEFAULT NULL COMMENT &#39;打卡设备&#39;,&lt;/div&gt;&lt;div class=&quot;old-record-id-FmYydZvrjogUZuxv6E2cjADqneS&quot;&gt;&amp;nbsp; `clock_picture` varchar(1000) DEFAULT NULL COMMENT &#39;打卡图片，隔开&#39;,&lt;/div&gt;&lt;div class=&quot;old-record-id-FmYydZvrjogUZuxv6E2cjADqneS&quot;&gt;&amp;nbsp; `clock_result` tinyint(5) DEFAULT NULL COMMENT &#39;签到结果（0-未签到，1-签到成功，-1-签到异常）&#39;,&lt;/div&gt;&lt;div class=&quot;old-record-id-FmYydZvrjogUZuxv6E2cjADqneS&quot;&gt;&amp;nbsp; `deleted` tinyint(5) DEFAULT &#39;0&#39; COMMENT &#39;是否已经删除，1：是，0：否&#39;,&lt;/div&gt;&lt;div class=&quot;old-record-id-FmYydZvrjogUZuxv6E2cjADqneS&quot;&gt;&amp;nbsp; `create_by` varchar(255) DEFAULT NULL COMMENT &#39;创建人&#39;,&lt;/div&gt;&lt;div class=&quot;old-record-id-FmYydZvrjogUZuxv6E2cjADqneS&quot;&gt;&amp;nbsp; `update_by` varchar(255) DEFAULT NULL COMMENT &#39;修改人&#39;,&lt;/div&gt;&lt;div class=&quot;old-record-id-FmYydZvrjogUZuxv6E2cjADqneS&quot;&gt;&amp;nbsp; `create_time` datetime DEFAULT NULL COMMENT &#39;创建时间&#39;,&lt;/div&gt;&lt;div class=&quot;old-record-id-FmYydZvrjogUZuxv6E2cjADqneS&quot;&gt;&amp;nbsp; `update_time` datetime DEFAULT NULL COMMENT &#39;修改时间&#39;,&lt;/div&gt;&lt;div class=&quot;old-record-id-FmYydZvrjogUZuxv6E2cjADqneS&quot;&gt;&amp;nbsp; PRIMARY KEY (`id`),&lt;/div&gt;&lt;div class=&quot;old-record-id-FmYydZvrjogUZuxv6E2cjADqneS&quot;&gt;&amp;nbsp; KEY `index_plan_id` (`business_plan_id`) USING BTREE,&lt;/div&gt;&lt;div class=&quot;old-record-id-FmYydZvrjogUZuxv6E2cjADqneS&quot;&gt;&amp;nbsp; KEY `index_file_id` (`community_file_id`) USING BTREE&lt;/div&gt;&lt;div class=&quot;old-record-id-FmYydZvrjogUZuxv6E2cjADqneS&quot;&gt;) ENGINE=InnoDB AUTO_INCREMENT=91 DEFAULT CHARSET=utf8mb4 COMMENT=&#39;签到/签退记录表&#39;;&lt;/div&gt;&lt;/div&gt;&lt;/div&gt;&lt;/div&gt;&lt;/div&gt;&lt;/div&gt;&lt;/div&gt;&lt;/div&gt;&lt;/div&gt;&lt;/div&gt;&lt;/div&gt;" style="shape=partialRectangle;connectable=0;fillColor=default;top=0;left=0;bottom=0;right=0;align=left;spacingLeft=6;overflow=hidden;whiteSpace=wrap;html=1;" vertex="1" parent="c-emaLklX0RcFC97JPN--20">
          <mxGeometry x="30" width="620" height="470" as="geometry">
            <mxRectangle width="620" height="470" as="alternateBounds" />
          </mxGeometry>
        </mxCell>
        <mxCell id="c-emaLklX0RcFC97JPN--23" value="community_contacter（&lt;span style=&quot;font-weight: 400; text-align: left; background-color: rgb(251, 251, 251);&quot;&gt;小区档案联系人表&lt;/span&gt;&lt;span style=&quot;background-color: rgb(213, 232, 212);&quot;&gt;）&lt;/span&gt;" style="shape=table;startSize=30;container=1;collapsible=1;childLayout=tableLayout;fixedRows=1;rowLines=0;fontStyle=1;align=center;resizeLast=1;html=1;labelBackgroundColor=default;fillColor=#d5e8d4;strokeColor=#82b366;" vertex="1" parent="1">
          <mxGeometry x="-3480" y="310" width="680" height="330" as="geometry" />
        </mxCell>
        <mxCell id="c-emaLklX0RcFC97JPN--24" value="" style="shape=tableRow;horizontal=0;startSize=0;swimlaneHead=0;swimlaneBody=0;fillColor=none;collapsible=0;dropTarget=0;points=[[0,0.5],[1,0.5]];portConstraint=eastwest;top=0;left=0;right=0;bottom=1;" vertex="1" parent="c-emaLklX0RcFC97JPN--23">
          <mxGeometry y="30" width="680" height="30" as="geometry" />
        </mxCell>
        <mxCell id="c-emaLklX0RcFC97JPN--25" value="PK" style="shape=partialRectangle;connectable=0;fillColor=none;top=0;left=0;bottom=0;right=0;fontStyle=1;overflow=hidden;whiteSpace=wrap;html=1;" vertex="1" parent="c-emaLklX0RcFC97JPN--24">
          <mxGeometry width="30" height="30" as="geometry">
            <mxRectangle width="30" height="30" as="alternateBounds" />
          </mxGeometry>
        </mxCell>
        <mxCell id="c-emaLklX0RcFC97JPN--26" value="`ID` bigint(20) NOT NULL AUTO_INCREMENT COMMENT &#39;自增ID&#39;" style="shape=partialRectangle;connectable=0;fillColor=none;top=0;left=0;bottom=0;right=0;align=left;spacingLeft=6;fontStyle=5;overflow=hidden;whiteSpace=wrap;html=1;" vertex="1" parent="c-emaLklX0RcFC97JPN--24">
          <mxGeometry x="30" width="650" height="30" as="geometry">
            <mxRectangle width="650" height="30" as="alternateBounds" />
          </mxGeometry>
        </mxCell>
        <mxCell id="c-emaLklX0RcFC97JPN--27" value="" style="shape=tableRow;horizontal=0;startSize=0;swimlaneHead=0;swimlaneBody=0;fillColor=none;collapsible=0;dropTarget=0;points=[[0,0.5],[1,0.5]];portConstraint=eastwest;top=0;left=0;right=0;bottom=0;" vertex="1" parent="c-emaLklX0RcFC97JPN--23">
          <mxGeometry y="60" width="680" height="270" as="geometry" />
        </mxCell>
        <mxCell id="c-emaLklX0RcFC97JPN--28" value="" style="shape=partialRectangle;connectable=0;fillColor=none;top=0;left=0;bottom=0;right=0;editable=1;overflow=hidden;whiteSpace=wrap;html=1;" vertex="1" parent="c-emaLklX0RcFC97JPN--27">
          <mxGeometry width="30" height="270" as="geometry">
            <mxRectangle width="30" height="270" as="alternateBounds" />
          </mxGeometry>
        </mxCell>
        <mxCell id="c-emaLklX0RcFC97JPN--29" value="&lt;div style=&quot;line-height: 130%;&quot;&gt;&lt;div style=&quot;line-height: 130%;&quot;&gt;&lt;div style=&quot;line-height: 130%;&quot;&gt;&lt;div style=&quot;line-height: 130%;&quot;&gt;&lt;div style=&quot;line-height: 130%;&quot;&gt;&lt;div style=&quot;line-height: 130%;&quot;&gt;&lt;div style=&quot;line-height: 130%;&quot;&gt;&lt;div data-docx-has-block-data=&quot;false&quot; data-page-id=&quot;YLrPdt7Foo4dSDxoeuHca6s7nCh&quot;&gt;&lt;div class=&quot;old-record-id-FmYydZvrjogUZuxv6E2cjADqneS&quot; style=&quot;&quot;&gt;&lt;div class=&quot;old-record-id-FmYydZvrjogUZuxv6E2cjADqneS&quot;&gt;&lt;div class=&quot;old-record-id-FmYydZvrjogUZuxv6E2cjADqneS&quot;&gt;CREATE TABLE `community_contacter` (&lt;/div&gt;&lt;div class=&quot;old-record-id-FmYydZvrjogUZuxv6E2cjADqneS&quot;&gt;&amp;nbsp; `id` bigint(20) NOT NULL AUTO_INCREMENT COMMENT &#39;主键id&#39;,&lt;/div&gt;&lt;div class=&quot;old-record-id-FmYydZvrjogUZuxv6E2cjADqneS&quot;&gt;&amp;nbsp; `cell_file_id` bigint(20) NOT NULL COMMENT &#39;小区档案表id&#39;,&lt;/div&gt;&lt;div class=&quot;old-record-id-FmYydZvrjogUZuxv6E2cjADqneS&quot;&gt;&amp;nbsp; `one_id` varchar(255) DEFAULT NULL COMMENT &#39;oneId&#39;,&lt;/div&gt;&lt;div class=&quot;old-record-id-FmYydZvrjogUZuxv6E2cjADqneS&quot;&gt;&amp;nbsp; `customer_type` tinyint(5) DEFAULT NULL COMMENT &#39;客户类型（1-居委拜访，2-物业拜访）&#39;,&lt;/div&gt;&lt;div class=&quot;old-record-id-FmYydZvrjogUZuxv6E2cjADqneS&quot;&gt;&amp;nbsp; `customer_name` varchar(50) DEFAULT NULL COMMENT &#39;客户名称&#39;,&lt;/div&gt;&lt;div class=&quot;old-record-id-FmYydZvrjogUZuxv6E2cjADqneS&quot;&gt;&amp;nbsp; `contacter_type` tinyint(5) DEFAULT &#39;2&#39; COMMENT &#39;联系人类型（1-主要联系人，2-次要联系人）&#39;,&lt;/div&gt;&lt;div class=&quot;old-record-id-FmYydZvrjogUZuxv6E2cjADqneS&quot;&gt;&amp;nbsp; `contacter_name` varchar(50) DEFAULT NULL COMMENT &#39;联系人姓名&#39;,&lt;/div&gt;&lt;div class=&quot;old-record-id-FmYydZvrjogUZuxv6E2cjADqneS&quot;&gt;&amp;nbsp; `mobile_type` tinyint(5) DEFAULT NULL COMMENT &#39;电话类型（1-座机，2-手机号）&#39;,&lt;/div&gt;&lt;div class=&quot;old-record-id-FmYydZvrjogUZuxv6E2cjADqneS&quot;&gt;&amp;nbsp; `mobile` varchar(50) DEFAULT NULL COMMENT &#39;电话号码&#39;,&lt;/div&gt;&lt;div class=&quot;old-record-id-FmYydZvrjogUZuxv6E2cjADqneS&quot;&gt;&amp;nbsp; `deleted` tinyint(5) DEFAULT &#39;0&#39; COMMENT &#39;是否已经删除，1：是，0：否&#39;,&lt;/div&gt;&lt;div class=&quot;old-record-id-FmYydZvrjogUZuxv6E2cjADqneS&quot;&gt;&amp;nbsp; `create_by` varchar(255) DEFAULT NULL COMMENT &#39;创建人&#39;,&lt;/div&gt;&lt;div class=&quot;old-record-id-FmYydZvrjogUZuxv6E2cjADqneS&quot;&gt;&amp;nbsp; `update_by` varchar(255) DEFAULT NULL COMMENT &#39;修改人&#39;,&lt;/div&gt;&lt;div class=&quot;old-record-id-FmYydZvrjogUZuxv6E2cjADqneS&quot;&gt;&amp;nbsp; `create_time` datetime DEFAULT NULL COMMENT &#39;创建时间&#39;,&lt;/div&gt;&lt;div class=&quot;old-record-id-FmYydZvrjogUZuxv6E2cjADqneS&quot;&gt;&amp;nbsp; `update_time` datetime DEFAULT NULL COMMENT &#39;修改时间&#39;,&lt;/div&gt;&lt;div class=&quot;old-record-id-FmYydZvrjogUZuxv6E2cjADqneS&quot;&gt;&amp;nbsp; PRIMARY KEY (`id`)&lt;/div&gt;&lt;div class=&quot;old-record-id-FmYydZvrjogUZuxv6E2cjADqneS&quot;&gt;) ENGINE=InnoDB AUTO_INCREMENT=85 DEFAULT CHARSET=utf8mb4 COMMENT=&#39;小区档案联系人表&#39;;&lt;/div&gt;&lt;/div&gt;&lt;/div&gt;&lt;/div&gt;&lt;/div&gt;&lt;/div&gt;&lt;/div&gt;&lt;/div&gt;&lt;/div&gt;&lt;/div&gt;&lt;/div&gt;" style="shape=partialRectangle;connectable=0;fillColor=default;top=0;left=0;bottom=0;right=0;align=left;spacingLeft=6;overflow=hidden;whiteSpace=wrap;html=1;" vertex="1" parent="c-emaLklX0RcFC97JPN--27">
          <mxGeometry x="30" width="650" height="270" as="geometry">
            <mxRectangle width="650" height="270" as="alternateBounds" />
          </mxGeometry>
        </mxCell>
        <mxCell id="c-emaLklX0RcFC97JPN--30" value="&lt;div style=&quot;text-align: left;&quot;&gt;community_customer_intent（&lt;span style=&quot;font-weight: 400; background-color: rgb(251, 251, 251);&quot;&gt;服务客户意向表&lt;/span&gt;&lt;span style=&quot;background-color: rgb(213, 232, 212);&quot;&gt;）&lt;/span&gt;&lt;/div&gt;" style="shape=table;startSize=30;container=1;collapsible=1;childLayout=tableLayout;fixedRows=1;rowLines=0;fontStyle=1;align=center;resizeLast=1;html=1;labelBackgroundColor=default;fillColor=#d5e8d4;strokeColor=#82b366;" vertex="1" parent="1">
          <mxGeometry x="-2650" y="350" width="740" height="640" as="geometry" />
        </mxCell>
        <mxCell id="c-emaLklX0RcFC97JPN--31" value="" style="shape=tableRow;horizontal=0;startSize=0;swimlaneHead=0;swimlaneBody=0;fillColor=none;collapsible=0;dropTarget=0;points=[[0,0.5],[1,0.5]];portConstraint=eastwest;top=0;left=0;right=0;bottom=1;" vertex="1" parent="c-emaLklX0RcFC97JPN--30">
          <mxGeometry y="30" width="740" height="30" as="geometry" />
        </mxCell>
        <mxCell id="c-emaLklX0RcFC97JPN--32" value="PK" style="shape=partialRectangle;connectable=0;fillColor=none;top=0;left=0;bottom=0;right=0;fontStyle=1;overflow=hidden;whiteSpace=wrap;html=1;" vertex="1" parent="c-emaLklX0RcFC97JPN--31">
          <mxGeometry width="30" height="30" as="geometry">
            <mxRectangle width="30" height="30" as="alternateBounds" />
          </mxGeometry>
        </mxCell>
        <mxCell id="c-emaLklX0RcFC97JPN--33" value="`ID` bigint(20) NOT NULL AUTO_INCREMENT COMMENT &#39;自增ID&#39;" style="shape=partialRectangle;connectable=0;fillColor=none;top=0;left=0;bottom=0;right=0;align=left;spacingLeft=6;fontStyle=5;overflow=hidden;whiteSpace=wrap;html=1;" vertex="1" parent="c-emaLklX0RcFC97JPN--31">
          <mxGeometry x="30" width="710" height="30" as="geometry">
            <mxRectangle width="710" height="30" as="alternateBounds" />
          </mxGeometry>
        </mxCell>
        <mxCell id="c-emaLklX0RcFC97JPN--34" value="" style="shape=tableRow;horizontal=0;startSize=0;swimlaneHead=0;swimlaneBody=0;fillColor=none;collapsible=0;dropTarget=0;points=[[0,0.5],[1,0.5]];portConstraint=eastwest;top=0;left=0;right=0;bottom=0;" vertex="1" parent="c-emaLklX0RcFC97JPN--30">
          <mxGeometry y="60" width="740" height="580" as="geometry" />
        </mxCell>
        <mxCell id="c-emaLklX0RcFC97JPN--35" value="" style="shape=partialRectangle;connectable=0;fillColor=none;top=0;left=0;bottom=0;right=0;editable=1;overflow=hidden;whiteSpace=wrap;html=1;" vertex="1" parent="c-emaLklX0RcFC97JPN--34">
          <mxGeometry width="30" height="580" as="geometry">
            <mxRectangle width="30" height="580" as="alternateBounds" />
          </mxGeometry>
        </mxCell>
        <mxCell id="c-emaLklX0RcFC97JPN--36" value="&lt;div style=&quot;line-height: 130%;&quot;&gt;&lt;div style=&quot;line-height: 130%;&quot;&gt;&lt;div style=&quot;line-height: 130%;&quot;&gt;&lt;div style=&quot;line-height: 130%;&quot;&gt;&lt;div style=&quot;line-height: 130%;&quot;&gt;&lt;div style=&quot;line-height: 130%;&quot;&gt;&lt;div style=&quot;line-height: 130%;&quot;&gt;&lt;div data-docx-has-block-data=&quot;false&quot; data-page-id=&quot;YLrPdt7Foo4dSDxoeuHca6s7nCh&quot;&gt;&lt;div class=&quot;old-record-id-FmYydZvrjogUZuxv6E2cjADqneS&quot; style=&quot;&quot;&gt;&lt;div class=&quot;old-record-id-FmYydZvrjogUZuxv6E2cjADqneS&quot;&gt;&lt;div class=&quot;old-record-id-FmYydZvrjogUZuxv6E2cjADqneS&quot;&gt;&lt;div class=&quot;old-record-id-FmYydZvrjogUZuxv6E2cjADqneS&quot;&gt;CREATE TABLE `community_customer_intent` (&lt;/div&gt;&lt;div class=&quot;old-record-id-FmYydZvrjogUZuxv6E2cjADqneS&quot;&gt;&amp;nbsp; `local_renovation_two` varchar(50) DEFAULT NULL COMMENT &#39;二级装修类型&#39;,&lt;/div&gt;&lt;div class=&quot;old-record-id-FmYydZvrjogUZuxv6E2cjADqneS&quot;&gt;&amp;nbsp; `id` bigint(20) NOT NULL AUTO_INCREMENT COMMENT &#39;主键自增ID&#39;,&lt;/div&gt;&lt;div class=&quot;old-record-id-FmYydZvrjogUZuxv6E2cjADqneS&quot;&gt;&amp;nbsp; `community_id` bigint(20) DEFAULT NULL COMMENT &#39;小区ID&#39;,&lt;/div&gt;&lt;div class=&quot;old-record-id-FmYydZvrjogUZuxv6E2cjADqneS&quot;&gt;&amp;nbsp; `source_type` tinyint(6) DEFAULT NULL COMMENT &#39;客户意向来源类型（1:拜访计划，2：线下活动， 3：社区服务）&#39;,&lt;/div&gt;&lt;div class=&quot;old-record-id-FmYydZvrjogUZuxv6E2cjADqneS&quot;&gt;&amp;nbsp; `activity_id` bigint(20) DEFAULT NULL COMMENT &#39;活动计划ID(线下活动ID/服务计划ID/拜访计划ID)&#39;,&lt;/div&gt;&lt;div class=&quot;old-record-id-FmYydZvrjogUZuxv6E2cjADqneS&quot;&gt;&amp;nbsp; `produce_intent_type` tinyint(255) DEFAULT NULL COMMENT &#39;制单类型(0-家装，1-零售)&#39;,&lt;/div&gt;&lt;div class=&quot;old-record-id-FmYydZvrjogUZuxv6E2cjADqneS&quot;&gt;&amp;nbsp; `customer_name` varchar(64) DEFAULT NULL COMMENT &#39;服务客户名称&#39;,&lt;/div&gt;&lt;div class=&quot;old-record-id-FmYydZvrjogUZuxv6E2cjADqneS&quot;&gt;&amp;nbsp; `customer_one_id` varchar(64) DEFAULT NULL COMMENT &#39;服务客户C端oneId&#39;,&lt;/div&gt;&lt;div class=&quot;old-record-id-FmYydZvrjogUZuxv6E2cjADqneS&quot;&gt;&amp;nbsp; `customer_phone` varchar(255) NOT NULL COMMENT &#39;服务客户手机号&#39;,&lt;/div&gt;&lt;div class=&quot;old-record-id-FmYydZvrjogUZuxv6E2cjADqneS&quot;&gt;&amp;nbsp; `services_status` tinyint(4) DEFAULT NULL COMMENT &#39;服务状态(0-待服务 ,10-服务中，1-服务完成)&#39;,&lt;/div&gt;&lt;div class=&quot;old-record-id-FmYydZvrjogUZuxv6E2cjADqneS&quot;&gt;&amp;nbsp; `location` varchar(255) DEFAULT NULL COMMENT &#39;经纬度&#39;,&lt;/div&gt;&lt;div class=&quot;old-record-id-FmYydZvrjogUZuxv6E2cjADqneS&quot;&gt;&amp;nbsp; `province_code` varchar(20) DEFAULT NULL COMMENT &#39;省编码&#39;,&lt;/div&gt;&lt;div class=&quot;old-record-id-FmYydZvrjogUZuxv6E2cjADqneS&quot;&gt;&amp;nbsp; `province_name` varchar(20) DEFAULT NULL COMMENT &#39;省名称&#39;,&lt;/div&gt;&lt;div class=&quot;old-record-id-FmYydZvrjogUZuxv6E2cjADqneS&quot;&gt;&amp;nbsp; `city_code` varchar(20) DEFAULT NULL COMMENT &#39;市编码&#39;,&lt;/div&gt;&lt;div class=&quot;old-record-id-FmYydZvrjogUZuxv6E2cjADqneS&quot;&gt;&amp;nbsp; `city_name` varchar(20) DEFAULT NULL COMMENT &#39;市名称&#39;,&lt;/div&gt;&lt;div class=&quot;old-record-id-FmYydZvrjogUZuxv6E2cjADqneS&quot;&gt;&amp;nbsp; `district_code` varchar(20) DEFAULT NULL COMMENT &#39;区县编码&#39;,&lt;/div&gt;&lt;div class=&quot;old-record-id-FmYydZvrjogUZuxv6E2cjADqneS&quot;&gt;&amp;nbsp; `district_name` varchar(20) DEFAULT NULL COMMENT &#39;区县名称&#39;,&lt;/div&gt;&lt;div class=&quot;old-record-id-FmYydZvrjogUZuxv6E2cjADqneS&quot;&gt;&amp;nbsp; `street_code` varchar(20) DEFAULT NULL COMMENT &#39;街道编码&#39;,&lt;/div&gt;&lt;div class=&quot;old-record-id-FmYydZvrjogUZuxv6E2cjADqneS&quot;&gt;&amp;nbsp; `street_name` varchar(20) DEFAULT NULL COMMENT &#39;街道名称&#39;,&lt;/div&gt;&lt;div class=&quot;old-record-id-FmYydZvrjogUZuxv6E2cjADqneS&quot;&gt;&amp;nbsp; `detail_address` varchar(255) DEFAULT NULL COMMENT &#39;详细地址(几栋几号楼几室)&#39;,&lt;/div&gt;&lt;div class=&quot;old-record-id-FmYydZvrjogUZuxv6E2cjADqneS&quot;&gt;&amp;nbsp; `services_type` varchar(255) DEFAULT NULL COMMENT &#39;服务类型（1-维修，2-检测，3-安装换新）&#39;,&lt;/div&gt;&lt;div class=&quot;old-record-id-FmYydZvrjogUZuxv6E2cjADqneS&quot;&gt;&amp;nbsp; `is_in_store` tinyint(4) DEFAULT NULL COMMENT &#39;是否需要到店（0-客户不在店，1-客户在店）&#39;,&lt;/div&gt;&lt;div class=&quot;old-record-id-FmYydZvrjogUZuxv6E2cjADqneS&quot;&gt;&amp;nbsp; `decoration_type` tinyint(20) DEFAULT NULL COMMENT &#39;装修类型&#39;,&lt;/div&gt;&lt;div class=&quot;old-record-id-FmYydZvrjogUZuxv6E2cjADqneS&quot;&gt;&amp;nbsp; `house_use` tinyint(20) DEFAULT NULL COMMENT &#39;房屋用途&#39;,&lt;/div&gt;&lt;div class=&quot;old-record-id-FmYydZvrjogUZuxv6E2cjADqneS&quot;&gt;&amp;nbsp; `product_type_name` varchar(255) DEFAULT NULL COMMENT &#39;派单品类名称，多个用逗号隔开&#39;,&lt;/div&gt;&lt;div class=&quot;old-record-id-FmYydZvrjogUZuxv6E2cjADqneS&quot;&gt;&amp;nbsp; `product_type` varchar(255) DEFAULT NULL COMMENT &#39;派单品类，多选存id&#39;,&lt;/div&gt;&lt;div class=&quot;old-record-id-FmYydZvrjogUZuxv6E2cjADqneS&quot;&gt;&amp;nbsp; `appointment_no` varchar(20) DEFAULT NULL COMMENT &#39;预约单号&#39;,&lt;/div&gt;&lt;div class=&quot;old-record-id-FmYydZvrjogUZuxv6E2cjADqneS&quot;&gt;&amp;nbsp; `sale_intent_order_no` varchar(20) DEFAULT NULL COMMENT &#39;零售意向单号&#39;,&lt;/div&gt;&lt;div class=&quot;old-record-id-FmYydZvrjogUZuxv6E2cjADqneS&quot;&gt;&amp;nbsp; `remark` varchar(255) DEFAULT NULL COMMENT &#39;备注信息&#39;,&lt;/div&gt;&lt;div class=&quot;old-record-id-FmYydZvrjogUZuxv6E2cjADqneS&quot;&gt;&amp;nbsp; `deleted` int(11) DEFAULT &#39;0&#39; COMMENT &#39;是否已经删除 (1：是 0：否)&#39;,&lt;/div&gt;&lt;div class=&quot;old-record-id-FmYydZvrjogUZuxv6E2cjADqneS&quot;&gt;&amp;nbsp; `create_time` datetime DEFAULT CURRENT_TIMESTAMP COMMENT &#39;创建时间&#39;,&lt;/div&gt;&lt;div class=&quot;old-record-id-FmYydZvrjogUZuxv6E2cjADqneS&quot;&gt;&amp;nbsp; `update_time` datetime DEFAULT CURRENT_TIMESTAMP ON UPDATE CURRENT_TIMESTAMP COMMENT &#39;更新时间&#39;,&lt;/div&gt;&lt;div class=&quot;old-record-id-FmYydZvrjogUZuxv6E2cjADqneS&quot;&gt;&amp;nbsp; `create_by` varchar(20) DEFAULT NULL COMMENT &#39;创建人&#39;,&lt;/div&gt;&lt;div class=&quot;old-record-id-FmYydZvrjogUZuxv6E2cjADqneS&quot;&gt;&amp;nbsp; `update_by` varchar(20) DEFAULT NULL COMMENT &#39;更新人&#39;,&lt;/div&gt;&lt;div class=&quot;old-record-id-FmYydZvrjogUZuxv6E2cjADqneS&quot;&gt;&amp;nbsp; PRIMARY KEY (`id`)&lt;/div&gt;&lt;div class=&quot;old-record-id-FmYydZvrjogUZuxv6E2cjADqneS&quot;&gt;) ENGINE=InnoDB AUTO_INCREMENT=174 DEFAULT CHARSET=utf8mb4 COMMENT=&#39;服务客户意向表&#39;;&lt;/div&gt;&lt;/div&gt;&lt;/div&gt;&lt;/div&gt;&lt;/div&gt;&lt;/div&gt;&lt;/div&gt;&lt;/div&gt;&lt;/div&gt;&lt;/div&gt;&lt;/div&gt;&lt;/div&gt;" style="shape=partialRectangle;connectable=0;fillColor=default;top=0;left=0;bottom=0;right=0;align=left;spacingLeft=6;overflow=hidden;whiteSpace=wrap;html=1;" vertex="1" parent="c-emaLklX0RcFC97JPN--34">
          <mxGeometry x="30" width="710" height="580" as="geometry">
            <mxRectangle width="710" height="580" as="alternateBounds" />
          </mxGeometry>
        </mxCell>
      </root>
    </mxGraphModel>
  </diagram>
</mxfile>
